<svg xmlns="http://www.w3.org/2000/svg" xmlns:xlink="http://www.w3.org/1999/xlink" fill="none" version="1.1" width="46" height="84" viewBox="0 0 46 84"><defs><filter id="master_svg0_2940_26331" filterUnits="objectBoundingBox" color-interpolation-filters="sRGB" x="-16" y="-14" width="46" height="46"><feFlood flood-opacity="0" result="BackgroundImageFix"/><feColorMatrix in="SourceAlpha" type="matrix" values="0 0 0 0 0 0 0 0 0 0 0 0 0 0 0 0 0 0 127 0"/><feOffset dy="2" dx="0"/><feGaussianBlur stdDeviation="4"/><feColorMatrix type="matrix" values="0 0 0 0 0.8604685068130493 0 0 0 0 0.9379860162734985 0 0 0 0 1 0 0 0 1 0"/><feBlend mode="normal" in2="BackgroundImageFix" result="effect1_dropShadow"/><feBlend mode="normal" in="SourceGraphic" in2="effect1_dropShadow" result="shape"/><feColorMatrix in="SourceAlpha" type="matrix" result="hardAlpha" values="0 0 0 0 0 0 0 0 0 0 0 0 0 0 0 0 0 0 127 0"/><feOffset dy="0" dx="0"/><feGaussianBlur stdDeviation="1"/><feComposite in2="hardAlpha" operator="arithmetic" k2="-1" k3="1"/><feColorMatrix type="matrix" values="0 0 0 0 1 0 0 0 0 1 0 0 0 0 1 0 0 0 0.30000001192092896 0"/><feBlend mode="normal" in2="shape" result="effect2_innerShadow"/></filter></defs><g><g filter="url(#master_svg0_2940_26331)"><g><ellipse cx="23" cy="63" rx="7" ry="7" fill="#E1F1FD" fill-opacity="1"/></g></g><g><path d="M23,45.998046875C20.361,45.998046875,4,33.336046875,4,22.898046875C4,12.460046875,12.507,3.998046875,23,3.998046875C33.492999999999995,3.998046875,42,12.460046875,42,22.898046875C42,33.336046875,25.639,45.998046875,23,45.998046875Z" fill="#1177FB" fill-opacity="1"/></g><g><path d="M40.692,31.6760234375Q43.5,26.9440234375,43.5,22.8980234375Q43.5,18.7480234375,41.887,14.9540234375Q40.33,11.2930234375,37.493,8.4700234375Q34.656,5.6490234375,30.977,4.1000234375Q27.168,2.4990234375,23,2.4990234375Q18.832,2.4990234375,15.023,4.1020234375Q11.343,5.6500234375,8.507,8.472023437499999Q5.67,11.2940234375,4.1129999999999995,14.9550234375Q2.5,18.7470234375,2.5,22.8980234375Q2.5,26.9440234375,5.308,31.6760234375Q7.584,35.5140234375,11.444,39.4160234375Q14.685,42.6950234375,18.051000000000002,45.0800234375Q21.461,47.4980234375,23,47.4980234375Q24.538,47.4980234375,27.95,45.0800234375Q31.315,42.6950234375,34.556,39.4170234375Q38.416,35.5140234375,40.692,31.6760234375L40.692,31.6760234375ZM39.127,16.128023437499998Q40.5,19.3580234375,40.5,22.8980234375Q40.5,26.1210234375,38.112,30.1460234375Q36.024,33.6660234375,32.423,37.3080234375Q29.366,40.3980234375,26.215,42.6330234375Q24.873,43.5830234375,23.878,44.1050234375Q23.441,44.3340234375,23.14,44.4420234375Q23.06,44.4710234375,23,44.4870234375Q22.94,44.4710234375,22.86,44.4420234375Q22.559,44.3340234375,22.122,44.1050234375Q21.127,43.5840234375,19.785,42.6330234375Q16.634,40.3990234375,13.577,37.3080234375Q9.977,33.6660234375,7.887,30.1460234375Q5.5,26.1200234375,5.5,22.8980234375Q5.5,19.3580234375,6.874,16.128023437499998Q8.201,13.0060234375,10.623,10.5980234375Q13.046,8.1880234375,16.186,6.8660234375Q19.437,5.4980234375000006,23,5.4980234375000006Q26.563,5.4980234375000006,29.814,6.8660234375Q32.954,8.187023437499999,35.377,10.5970234375Q37.799,13.0070234375,39.127,16.128023437499998Z" fill-rule="evenodd" fill="#FFFFFF" fill-opacity="1"/></g><g><ellipse cx="23" cy="22" rx="12" ry="12" fill="#FFFFFF" fill-opacity="1"/></g></g></svg>
