<svg xmlns="http://www.w3.org/2000/svg" fill="none" width="33" height="54"><defs><linearGradient x1="0" y1=".258" x2=".61" y2=".781" id="a"><stop offset="0%" stop-color="#92D877"/><stop offset="53.584%" stop-color="#2FA03A"/><stop offset="100%" stop-color="#005916"/></linearGradient><filter id="b" filterUnits="objectBoundingBox" color-interpolation-filters="sRGB" x="-4" y="-4" width="14.176" height="11.002"><feFlood flood-opacity="0" result="BackgroundImageFix"/><feBlend in="SourceGraphic" in2="BackgroundImageFix" result="shape"/><feGaussianBlur stdDeviation="1" result="effect1_foregroundBlur"/></filter></defs><path d="M16.472 37.975C14.184 37.975 0 26.828 0 17.638S7.375.998 16.472.998c9.097 0 16.472 7.45 16.472 16.64 0 9.19-14.184 20.337-16.472 20.337Zm0-15.253c2.78 0 5.033-2.276 5.033-5.084s-2.253-5.085-5.033-5.085c-2.78 0-5.033 2.277-5.033 5.085s2.253 5.084 5.033 5.084Z" fill="#1177FB"/><ellipse cx="16.62" cy="17.033" rx="11.494" ry="11.398" fill="#FFF"/><circle cx="16" cy="46" fill="url(#a)" r="7"/><g transform="rotate(-35.12 10 43.553)" filter="url(#b)"><ellipse cx="13.088" cy="45.053" rx="3.088" ry="1.501" fill="#A5E48C"/></g></svg>