<svg xmlns="http://www.w3.org/2000/svg" viewBox="0 0 64 64"><linearGradient id="a" x1="32" x2="32" y1="9.25" y2="55.001" gradientUnits="userSpaceOnUse" spreadMethod="reflect"><stop offset="0" stop-color="#1a6dff"/><stop offset="1" stop-color="#c822ff"/></linearGradient><path fill="url(#a)" d="M60.099 13.851a1.997 1.997 0 0 0-1.893-.169L54 15.484V13c0-1.654-1.346-3-3-3H35c-1.654 0-3 1.346-3 3v6H10c-2.206 0-4 1.794-4 4v25H5c-1.103 0-2 .897-2 2v1c0 1.654 1.346 3 3 3h44c1.654 0 3-1.346 3-3v-1c0-1.103-.897-2-2-2h-1V28h1c1.654 0 3-1.346 3-3v-2.484l4.206 1.802a2 2 0 0 0 1.893-.169c.564-.372.901-.997.901-1.672v-6.953c0-.676-.337-1.301-.901-1.673zM35 28h9v16H12V25h20c0 1.654 1.346 3 3 3zm16 23a1 1 0 0 1-1 1H6a1 1 0 0 1-1-1v-1h16.586l.415.415c.377.377.878.585 1.411.585h9.176c.533 0 1.034-.208 1.411-.585l.415-.415H51v1zm-3-3H33.586l-.998 1h-9.173l-1.001-1H8V23c0-1.103.897-2 2-2h22v2H12c-1.103 0-2 .897-2 2v21h36V28h2v20zm4-23a1 1 0 0 1-1 1H35a1 1 0 0 1-1-1V13a1 1 0 0 1 1-1h16a1 1 0 0 1 1 1v12zm6.998-2.519L54 20.341V17.66l5-2.137-.002 6.958z"/><linearGradient id="b" x1="43" x2="43" y1="9.25" y2="55.001" gradientUnits="userSpaceOnUse" spreadMethod="reflect"><stop offset="0" stop-color="#1a6dff"/><stop offset="1" stop-color="#c822ff"/></linearGradient><path fill="url(#b)" d="M43 14c-2.757 0-5 2.243-5 5s2.243 5 5 5 5-2.243 5-5-2.243-5-5-5zm0 8c-1.654 0-3-1.346-3-3s1.346-3 3-3 3 1.346 3 3-1.346 3-3 3z"/><linearGradient id="c" x1="33" x2="33" y1="30.75" y2="35.345" gradientUnits="userSpaceOnUse" spreadMethod="reflect"><stop offset="0" stop-color="#6dc7ff"/><stop offset="1" stop-color="#e6abff"/></linearGradient><path fill="url(#c)" d="M33 31a2 2 0 1 0 0 4 2 2 0 1 0 0-4z"/><linearGradient id="d" x1="23" x2="23" y1="30.75" y2="35.345" gradientUnits="userSpaceOnUse" spreadMethod="reflect"><stop offset="0" stop-color="#6dc7ff"/><stop offset="1" stop-color="#e6abff"/></linearGradient><path fill="url(#d)" d="M23 31a2 2 0 1 0 0 4 2 2 0 1 0 0-4z"/><linearGradient id="e" x1="28" x2="28" y1="35.833" y2="40.179" gradientUnits="userSpaceOnUse" spreadMethod="reflect"><stop offset="0" stop-color="#6dc7ff"/><stop offset="1" stop-color="#e6abff"/></linearGradient><path fill="url(#e)" d="M31 37a3 3 0 1 1-6 0v-1h6v1z"/></svg>